<?xml version="1.0" encoding="UTF-8" standalone="no"?>
<svg width="158px" height="66px" viewBox="0 0 158 66" version="1.1" xmlns="http://www.w3.org/2000/svg" xmlns:xlink="http://www.w3.org/1999/xlink">
    <!-- Generator: Sketch 3.8.3 (29802) - http://www.bohemiancoding.com/sketch -->
    <title>Grass Haus</title>
    <desc>Created with Sketch.</desc>
    <defs>
        <polygon id="path-1" points="0 0.267013423 0 51.2000736 157.811647 51.2000736 157.811647 0.267013423 0 0.267013423"></polygon>
        <polygon id="path-3" points="49.3607788 0.30207913 0.1054492 0.30207913 0.1054492 20.6944177 49.3607788 20.6944177 49.3607788 0.30207913"></polygon>
    </defs>
    <g id="Symbols" stroke="none" stroke-width="1" fill="none" fill-rule="evenodd">
        <g id="Menü-Grass" transform="translate(-200.000000, -23.000000)">
            <g id="Grass-Haus" transform="translate(200.000000, 23.000000)">
                <g id="Group-3" transform="translate(0.000000, 5.739130)">
                    <mask id="mask-2" fill="white">
                        <use xlink:href="#path-1"></use>
                    </mask>
                    <g id="Clip-2"></g>
                    <path d="M31.1488684,15.1204542 C31.1488684,13.3067008 30.7505421,12.905338 29.1672158,12.2736573 C29.1239737,12.2592624 2.3305,4.13716978 2.3305,4.13716978 L2.38122632,4.15579843 C1.67854211,3.86112701 1.10475263,3.86028026 0.674826316,4.15410492 C0.220784211,4.4631712 -0.000415789474,5.03388539 -0.000415789474,5.89673072 C-0.000415789474,5.89757748 0.0370052632,32.285911 0.0370052632,32.285911 C0.0370052632,33.0412182 0.226605263,33.5594335 0.614121053,33.8693465 C1.13967895,34.2884912 1.8565,34.174179 2.35045789,34.0505525 C2.34131053,34.0530928 14.1073211,31.3654862 17.0319842,30.697395 L17.0319842,43.8119666 C17.0319842,44.4893722 17.2756368,45.0194421 17.7172053,45.3039524 C18.0498368,45.5190287 18.6402579,45.681606 19.5649737,45.2362118 C19.5516684,45.2421391 29.5414263,40.8999695 35.0863947,38.490946 L35.0863947,37.3054862 C29.6503632,39.6679381 19.1259,44.2421192 19.1259,44.2421192 C18.7400474,44.4267122 18.4348579,44.4766708 18.2901632,44.3826808 C18.1729105,44.3073195 18.1038895,44.0939367 18.1038895,43.8119666 L18.1038895,29.3358098 L17.4502684,29.4848391 L2.10514211,32.9895661 C1.51472105,33.136055 1.32844737,33.0530728 1.27605789,33.0115818 C1.22533158,32.9709374 1.10891053,32.8193679 1.10891053,32.2850643 L1.07148947,5.89588396 C1.07148947,5.38020898 1.17460526,5.1261819 1.27106842,5.06013485 C1.35422632,5.00340214 1.58291053,5.00086187 1.97292105,5.16428596 L1.9987,5.17444704 L2.02447895,5.18206785 L28.8187842,13.3041605 C30.0037842,13.7791912 30.0777947,13.8088277 30.0777947,15.1204542 L30.0777947,21.7039895 L30.5484684,21.7624157 L35.0863947,22.3246623 L35.0863947,21.2255718 L31.1488684,20.7378398 L31.1488684,15.1204542 Z M157.799174,29.9962803 C157.799174,29.2714563 157.762584,28.5855832 157.324342,28.1545839 C156.920195,27.7574549 156.321458,27.6964884 155.485721,27.7261249 C155.484889,27.7261249 148.020637,27.9970871 145.909258,28.0732952 L145.909258,13.5793565 C145.909258,12.8723145 145.840237,12.1627321 145.343784,11.7588291 C144.834858,11.3456117 144.114711,11.4446823 143.544247,11.5776231 C143.545079,11.5776231 130.493447,14.5709089 127.409121,15.2787977 L127.409121,2.08463093 C127.409121,1.30222751 127.1821,0.758609551 126.736374,0.469018674 C126.432016,0.270877548 125.892321,0.11761454 125.051595,0.515590306 C125.045774,0.518130577 96.3696053,14.4777656 96.3696053,14.4777656 C94.6457421,15.3143615 94.4569737,15.4616972 94.4669526,17.0933979 L94.4677842,17.4287136 L94.4677842,22.6066324 L90.8312895,23.3001263 L90.8312895,24.4093779 L95.1022789,23.5947977 L95.5396895,23.5118155 L95.5396895,17.4287136 L95.5380263,17.0866238 C95.5322053,16.0925311 95.5322053,16.0925311 96.8311316,15.4616972 L125.5073,1.50206215 C125.859889,1.33609779 126.080258,1.33609779 126.160089,1.38774996 C126.245742,1.44363592 126.337216,1.65617192 126.337216,2.08463093 L126.337216,16.6420764 L126.990005,16.4922004 L143.781247,12.6411498 C144.453163,12.4853465 144.635279,12.5784898 144.676026,12.6115133 C144.750037,12.6716331 144.838184,12.8884029 144.838184,13.5793565 L144.838184,29.2037158 L145.392847,29.1833936 L155.523974,28.8150543 C156.119384,28.7938854 156.4753,28.8362232 156.580079,28.9395276 C156.7281,29.084323 156.7281,29.746487 156.7281,29.9962803 C156.7281,29.997127 156.740574,48.855251 156.740574,48.855251 C156.740574,49.8434164 156.567605,50.039864 156.514384,50.0762746 C156.468647,50.1067578 156.259921,50.1855062 155.4957,49.8730529 C155.480732,49.8671256 123.467437,37.9236188 123.467437,37.9236188 C123.469932,37.9236188 123.143953,37.8025326 123.143953,37.8025326 C122.249174,37.4697571 122.249174,37.4697571 122.250005,36.15305 L122.250005,36.0023273 C122.250005,36.0074078 122.263311,34.533204 122.263311,34.533204 L122.267468,34.0810358 L121.832553,33.9929731 L108.2695,31.2460935 L107.629184,31.1165397 L107.629184,44.5613465 C107.629184,45.5131014 107.477837,45.6680579 107.4479,45.6892268 C107.431268,45.7002346 107.269942,45.7908376 106.563932,45.5147949 C106.5631,45.5139481 97.1072158,41.8525711 90.8312895,39.4223786 L90.8312895,40.5892097 C97.1063842,43.0194021 106.181405,46.5334435 106.181405,46.5334435 C106.763511,46.7612211 107.503616,46.9729103 108.054121,46.5876359 C108.622089,46.1905069 108.700258,45.378467 108.700258,44.5613465 L108.700258,32.4451014 L121.188079,34.9743644 L121.178932,35.9972468 L121.178932,36.1522033 C121.1781,37.9981334 121.237142,38.2547008 122.776395,38.8271085 L123.095721,38.9465012 C123.098216,38.947348 155.111511,50.8908547 155.111511,50.8908547 C155.7643,51.1584299 156.526026,51.3836673 157.113121,50.9797642 C157.729321,50.5572325 157.811647,49.6672909 157.811647,48.8544043 C157.811647,48.8535575 157.799174,29.9954335 157.799174,29.9962803 L157.799174,29.9962803 Z" id="Fill-1" fill="#FEFEFE" mask="url(#mask-2)"></path>
                </g>
                <polygon id="Fill-4" fill="#FEFEFE" points="87.7777778 26.1259272 38.6222222 13.6304348 38.6222222 14.766233 87.7777778 27.2608696"></polygon>
                <polygon id="Fill-6" fill="#FEFEFE" points="87.7777778 29.0081001 38.6222222 20.0869565 38.6222222 21.2101499 87.7777778 30.1304348"></polygon>
                <polygon id="Fill-8" fill="#FEFEFE" points="87.7777778 22.568129 38.6222222 7.17391304 38.6222222 8.27969706 87.7777778 23.673913"></polygon>
                <g id="Group-12" transform="translate(38.622222, 0.000000)">
                    <mask id="mask-4" fill="white">
                        <use xlink:href="#path-3"></use>
                    </mask>
                    <g id="Clip-11"></g>
                    <polygon id="Fill-10" fill="#FEFEFE" mask="url(#mask-4)" points="49.3607788 19.5435211 0.1054492 0.301995913 0.1054492 1.45289243 49.3607788 20.6944177"></polygon>
                </g>
                <polygon id="Fill-13" fill="#FEFEFE" points="75.4506647 54.1922437 75.4506647 40.5373975 79.7396583 40.6518624 79.7396583 52.7990422 80.7555556 52.4695468 80.7555556 39.6249487 80.260611 39.611867 74.9557202 39.470421 74.4355556 39.4565217 74.4355556 54.5217391"></polygon>
                <polygon id="Fill-15" fill="#FEFEFE" points="62.1809027 58.4959705 62.1809027 40.5386158 67.7302084 40.6721368 67.7302084 56.8101646 68.8177778 56.4800481 68.8177778 39.6424683 68.2875033 39.6285427 61.6497838 39.4696281 61.0933333 39.4565217 61.0933333 58.826087"></polygon>
                <polygon id="Fill-17" fill="#FEFEFE" points="47.445238 63.5159884 47.445238 40.550845 54.3761313 40.7624636 54.3761313 61.4212116 55.4755556 61.0885505 55.4755556 39.7348372 54.9433285 39.7191923 46.9130109 39.4746369 46.3466667 39.4565217 46.3466667 63.8478261"></polygon>
                <polygon id="Fill-19" fill="#FEFEFE" points="39.6953858 65.6591284 39.6953858 27.7597893 86.7046142 33.0115803 86.7046142 50.7166033 87.7777778 50.3757317 87.7777778 32.0363322 87.2995201 31.9830446 39.2171281 26.6102992 38.6222222 26.5434783 38.6222222 66"></polygon>
            </g>
        </g>
    </g>
</svg>